<svg width="31" height="31" viewBox="0 0 31 31" fill="none" xmlns="http://www.w3.org/2000/svg">
<g id="image">
<path id="Vector" d="M15.6899 25.2171C13.3693 25.2171 11.1437 24.2952 9.50276 22.6543C7.86181 21.0134 6.93994 18.7878 6.93994 16.4671C6.93994 14.1465 7.86181 11.9209 9.50276 10.2799C11.1437 8.63899 13.3693 7.71711 15.6899 7.71711C18.0106 7.71711 20.2362 8.63899 21.8771 10.2799C23.5181 11.9209 24.4399 14.1465 24.4399 16.4671C24.4399 18.7878 23.5181 21.0134 21.8771 22.6543C20.2362 24.2952 18.0106 25.2171 15.6899 25.2171ZM15.6899 5.21711C12.7063 5.21711 9.84477 6.40238 7.73499 8.51216C5.62521 10.6219 4.43994 13.4834 4.43994 16.4671C4.43994 19.4508 5.62521 22.3123 7.73499 24.4221C9.84477 26.5318 12.7063 27.7171 15.6899 27.7171C18.6736 27.7171 21.5351 26.5318 23.6449 24.4221C25.7547 22.3123 26.9399 19.4508 26.9399 16.4671C26.9399 13.4834 25.7547 10.6219 23.6449 8.51216C21.5351 6.40238 18.6736 5.21711 15.6899 5.21711ZM16.3149 10.2171H14.4399V17.7171L20.3774 21.2796L21.3149 19.7421L16.3149 16.7796V10.2171ZM10.5399 4.45461L8.93994 2.54211L3.18994 7.35461L4.80244 9.26711L10.5399 4.45461ZM28.1899 7.36711L22.4399 2.54211L20.8274 4.45461L26.5774 9.27961L28.1899 7.36711Z" fill="black"/>
</g>
</svg>
